# xmcd
#
# Track frame offsets:
# 150
# 24237
# 41918
# 59238
# 76913
# 95818
# 118076
# 132785
# 150308
#
# Disc length: 2858 seconds
#
# Revision: 1
# Processed by: cddbd v1.5.2PL0 Copyright (c) Steve Scherf et al.
# Submitted via: CedeCatalogueitor 2.6.0.6 http://personales.ya.com/cdcatalogueitor
#
DISCID=730b2809
DTITLE=El Hijo - Las Otras Vidas
DYEAR=1900
DGENRE=
TTITLE0=Saturnalia
TTITLE1=100 Cometas
TTITLE2=Los Reys Que Traigo
TTITLE3=Vals De Los Besos
TTITLE4=Conmigo A Tu Vera
TTITLE5=Bosques On
TTITLE6=Mirando Atras
TTITLE7=En Medio Del Llano
TTITLE8=Cabalgar
EXTD=
EXTT0=
EXTT1=
EXTT2=
EXTT3=
EXTT4=
EXTT5=
EXTT6=
EXTT7=
EXTT8=
PLAYORDER=
